<svg xmlns="http://www.w3.org/2000/svg" viewBox="0 0 24 24" fill="none">
  <path
    fill="#16c47f"
    d="M11.94 1.5a.75.75 0 0 1 .634.35l1.79 2.865a3.25 3.25 0 0 1-.183 3.667L8.822 14.97h5.48a4.25 4.25 0 0 0 3.617-2.021l3.264-5.306a.75.75 0 0 1 1.277.787l-3.265 5.306a5.75 5.75 0 0 1-4.894 2.734H7.547l1.34 1.86a.75.75 0 0 0 .608.31h4.21a2.75 2.75 0 0 0 2.355-1.332l3.702-6.165a.75.75 0 0 1 1.286.772l-3.702 6.165a4.25 4.25 0 0 1-3.64 2.06h-4.21a2.25 2.25 0 0 1-1.823-.93L6.155 17.1a1.897 1.897 0 0 1 .103-2.322l6.75-8.182a1.75 1.75 0 0 0 .098-1.974l-1.79-2.865A.75.75 0 0 1 11.94 1.5Z"
  />
</svg>
